<?xml version="1.0" encoding="utf-8"?>
<!-- Generator: Adobe Illustrator 24.0.1, SVG Export Plug-In . SVG Version: 6.00 Build 0)  -->
<svg version="1.1" id="Layer_1" xmlns="http://www.w3.org/2000/svg" xmlns:xlink="http://www.w3.org/1999/xlink" x="0px" y="0px"
	 viewBox="0 0 656.3 394.1" style="enable-background:new 0 0 656.3 394.1;" xml:space="preserve">
<style type="text/css">
	.st0{opacity:0.35;}
	.st1{fill:#FFFCF0;}
	.st2{fill:#FFF4E5;}
	.st3{fill:#FFF3EF;}
	.st4{fill:#F4F1DF;}
	.st5{fill:#9EB4B1;}
	.st6{opacity:0.3;fill:#9EB4B1;enable-background:new    ;}
	.st7{fill:#7A9984;}
	.st8{fill:#9C724D;}
	.st9{fill:#FCC9CF;}
	.st10{fill:#FFC266;}
	.st11{opacity:0.4;fill:#FFC266;enable-background:new    ;}
	.st12{fill:#E49477;}
	.st13{fill:#B8A691;}
	.st14{opacity:0.4;fill:#B8A691;enable-background:new    ;}
	.st15{opacity:0.4;fill:#E49477;enable-background:new    ;}
	.st16{fill:#EEE4C0;}
	.st17{opacity:0.4;fill:#EEE4C0;enable-background:new    ;}
	.st18{fill:#748B97;}
	.st19{fill:#EEE4DA;}
	.st20{fill:#4B1C15;}
	.st21{fill:#AFB9B7;}
</style>
<title>3626059</title>
<g class="st0">
	<g id="OBJECTS">
		<path class="st1" d="M218.7,16.9c-50.2-1-96.9,20.6-111.5,61.4c-8.6,24.1-7.4,52.9-23.8,72.2c-16.2,19.1-44.5,22.1-62.9,39
			C5.9,202.8-0.8,223.7,0.1,243.7s8.8,39.1,19.8,55.7c34.4,52.3,100.8,80,160.7,66.9c40-8.7,77.3-33.6,118-30.8
			c34.5,2.4,64.4,24.2,96.5,37.3c60.5,24.6,132.4,16.5,186.3-20.9c21.4-14.8,40.5-34.7,49.7-59.5s7.2-55.1-9.5-75.4
			c-16.9-20.6-47.7-39.7-87.2-33.4c-25.9,4.2-77.3,33.5-123.8,25.8c-25.9-4.3-87.8-11.6-92.4-107.8C316.4,62,286.8,18.3,218.7,16.9z
			"/>
		<path class="st1" d="M48.8,117.1c3,5.9,10,9.1,16.7,8.6s12.7-4.3,17-9.4c3.8-4.4,6.4-10.5,4.5-16c-2.2-6.4-10-9.6-16.7-8.7
			C59.2,93.1,41.9,103.7,48.8,117.1z"/>
		<path class="st1" d="M480.4,25.3c3,5.9,10.1,9.1,16.7,8.6s12.7-4.3,17-9.4c3.8-4.4,6.4-10.5,4.5-16c-2.2-6.4-10-9.6-16.7-8.7
			C490.8,1.3,473.5,11.9,480.4,25.3z"/>
		<path class="st2" d="M626.9,274.4c-6.8,3.5-10.6,11.6-10,19.2s4.8,14.7,10.7,19.7c5.1,4.4,12.1,7.5,18.4,5.3
			c7.5-2.5,11.1-11.5,10.2-19.3C654.6,286.5,642.5,266.5,626.9,274.4z"/>
		<path class="st1" d="M94.4,0.5c-4.4,1.3-7.5,5.3-7.8,9.9c-0.3,4.3,1.9,8.7,5.1,12c2.8,2.9,7,5.3,11.1,4.6c4.9-0.7,7.9-5.4,7.9-9.8
			C110.8,9.8,104.8-2.5,94.4,0.5z"/>
		<path class="st1" d="M15.8,157.2c-2.9,0.6-5.1,3-5.4,6c-0.1,2.7,1.5,5.4,3.8,7.4c2,1.8,5,3.3,7.9,3c3.1-0.3,5.4-2.9,5.4-6
			C27.4,163.1,23,155.5,15.8,157.2z"/>
		<path class="st1" d="M35.2,49.8c2.2-2,2.9-5.2,1.7-7.8c-1.2-2.4-3.9-3.9-7-4.6c-2.7-0.6-6-0.4-8.3,1.3c-2.5,1.8-3.3,5.2-1.7,7.9
			C22.1,50.4,29.7,54.9,35.2,49.8z"/>
		<path class="st2" d="M227.2,43.9c-4.4,1.3-7.5,5.3-7.8,9.8c-0.3,4.3,1.9,8.7,5.1,12c2.8,2.9,7,5.3,11.1,4.6
			c4.9-0.7,7.9-5.4,7.9-9.8C243.6,53.2,237.6,40.9,227.2,43.9z"/>
		<path class="st2" d="M31.7,303.7c-0.6-2.8-2.9-5-5.7-5.4c-2.8-0.3-5.6,0.7-7.8,2.5c-2,1.6-3.7,4-3.5,6.7c0.2,3.1,2.9,5.2,5.7,5.5
			C25,313.4,33,310.4,31.7,303.7z"/>
		<path class="st2" d="M416.5,184.4c-2,4.2-1.2,9.1,2,12.4c3,3.1,7.7,4.4,12.3,4.3c4-0.1,8.6-1.6,10.9-5c2.8-4.1,1.3-9.4-1.9-12.5
			C434.4,178.6,421.3,174.7,416.5,184.4z"/>
		<path class="st3" d="M617.8,21.3h-189v250.3h196.9V21.3H617.8z M552.2,29.3v40.5h-49.7V29.3H552.2z M552.2,118.3h-49.7V77.8h49.7
			L552.2,118.3z M552.2,166.8h-49.7v-40.5h49.7L552.2,166.8z M552.2,215.2h-49.7v-40.5h49.7L552.2,215.2z M436.8,29.3h57.7v40.5
			h-57.7V29.3z M436.8,77.8h57.7v40.5h-57.7V77.8z M436.8,126.2h57.7v40.5h-57.7V126.2z M436.8,174.7h57.7v40.5h-57.7V174.7z
			 M436.8,263.7v-40.6h57.7v40.5L436.8,263.7z M502.5,263.7v-40.6h49.7v40.5L502.5,263.7z M617.8,263.7h-57.7v-40.6h57.7V263.7z
			 M617.8,215.2h-57.7v-40.5h57.7V215.2z M617.8,166.8h-57.7v-40.5h57.7V166.8z M617.8,118.3h-57.7V77.8h57.7V118.3z M617.8,69.9
			h-57.7V29.3h57.7V69.9z"/>
		<ellipse class="st4" cx="575" cy="366.9" rx="71.8" ry="14.6"/>
		<path class="st5" d="M617.3,60.4c0,0-11.5,15.6-8.8,29.2c2.9,14.6,13,32.2-6.5,45.3s-24.7,19.9-24.7,19.9s-16.3-32.2-8-48.3
			s13.2-11.2,24.4-20.5C602.1,79,606.5,60.9,617.3,60.4z"/>
		<path class="st6" d="M606.5,87.1c-3.5,2.4-5.4,7.1-7.3,10.7c-3.2,6-6.5,12-9.1,18.3s-5.2,13.2-6.2,20c-0.4,2.7-0.4,5.5-0.5,8.3
			c1.1-1.3,5.5-5.8,16.7-13.3c13.4-9.1,6.5-21.1,4.5-31.2C603.6,95.6,604.9,90.9,606.5,87.1z"/>
		<path class="st5" d="M636.6,122.7c0,0-7.6,16.2-8.3,28.8c-0.9,14.9,4.6,28.4-14.9,41.5s-23.2,16.9-23.2,16.9s-6.8-26.6-1.5-40.6
			c6.5-16.9,11.3-15.4,22.5-24.7C619.8,137.6,625.8,123.2,636.6,122.7z"/>
		<path class="st6" d="M621.2,162.9c0.6-6.1,5.7-20.5,7.4-24.4c-5.5,6.4-15.9,22.9-21.2,34.3c-4.2,9.1-8.6,19.4-10.6,27.1
			c2.5-1.7,6.5-4.4,12.9-8.4C623.7,182.8,620.2,173.3,621.2,162.9z"/>
		<path class="st5" d="M496.9,120.2c0,0,6.7,15.3,21.4,22.6c15.2,7.6,29.8,20.6,33.5,40.8c-12.8-7.6-23.8-1.5-42.4-8.6
			C491.1,168.1,481.5,136.3,496.9,120.2z"/>
		<path class="st6" d="M521.4,159.8c6.7,3.2,14.3,5.7,20.6,9.8c-5.3-10.6-14.6-18-24.2-22.8c-5.6-2.9-10.4-7.2-14-12.4
			C503.7,146.3,510.8,154.8,521.4,159.8z"/>
		<path class="st7" d="M571.3,247.4c-0.4,0-0.6-0.3-0.7-0.6c-4.5-59.8-26-69.8-36.3-74.6c-21.5-10-28-13.1-35.4-28.9
			c-0.2-0.3,0-0.7,0.3-0.9c0.3-0.2,0.7,0,0.9,0.3c0,0,0,0,0,0c7.2,15.4,13,18.1,34.7,28.3c16,7.5,33,22.4,37,75.7
			C572,247.1,571.7,247.4,571.3,247.4L571.3,247.4z"/>
		<path class="st7" d="M577.1,247.4c-0.3,0-0.6-0.3-0.7-0.6c-1.5-16.5-2.4-57.6,0-92s21.5-61.9,21.7-62.2c0.2-0.3,0.6-0.4,0.9-0.2
			c0.3,0.2,0.4,0.6,0.2,0.9c-0.2,0.3-19.1,27.6-21.4,61.5c-2.4,34.3-1.5,75.3,0,91.8C577.9,247.1,577.6,247.4,577.1,247.4
			C577.2,247.4,577.2,247.4,577.1,247.4L577.1,247.4z"/>
		<path class="st7" d="M584.7,247.4c-0.4,0-0.6-0.3-0.7-0.6c0-0.2-0.3-6.3,5.5-37s30.6-64.8,30.8-65.1c0.2-0.3,0.6-0.4,0.9-0.1
			c0.3,0.2,0.4,0.6,0.1,0.9l0,0c-0.2,0.3-24.9,34.1-30.6,64.6s-5.5,36.6-5.5,36.7C585.4,247.1,585.1,247.4,584.7,247.4
			C584.7,247.4,584.7,247.4,584.7,247.4L584.7,247.4z"/>
		<polygon class="st8" points="591.9,355.1 562.5,355.1 549.3,243.7 605,243.7 		"/>
		<rect x="546.6" y="276.9" class="st9" width="61.9" height="4.6"/>
		
			<rect x="515.3" y="322.3" transform="matrix(0.1239 -0.9923 0.9923 0.1239 168.2478 837.9054)" class="st9" width="86.8" height="2.7"/>
		
			<rect x="595" y="280.3" transform="matrix(0.9923 -0.1238 0.1238 0.9923 -35.4756 76.3017)" class="st9" width="2.7" height="86.8"/>
		<ellipse class="st4" cx="197.7" cy="375.6" rx="177.3" ry="18.5"/>
		<path class="st10" d="M105.8,140.8c-27.5,10.9-48.3,38.6-55,69.7s-2.1,70.4,20.4,103.7c41.8,61.9,120.6,68,149.9,68.3
			c40.9,0.3,71.4-7.7,105.1-24.1c46.8-22.8,55.1-86.4,29.6-117.5c-19.3-23.4-43.9-28-78.7-14c-13.9,5.6-29.3,6-40.6-4.5
			c-9.7-9-14.8-22.4-20.8-34.6c-5.1-10.3-11.8-20.6-21.8-25.8c-8.8-4.6-15.8-10.6-24.4-15.8C150.2,134.7,126.7,132.7,105.8,140.8z"
			/>
		<path class="st11" d="M185.3,342.2c-7.1,0.6-17.3-2.8-23.6-6c-16.6-8.4-7.1-23.2,9.2-15c3.9,2,8.5,2.7,12.9,4.3
			S190.5,341.7,185.3,342.2z M263.7,324.4c-2.9-5.1-10.7-7.2-17.6-6.7s-13.1,3.1-19.6,5c-7,2.2-14.3,3.6-21.7,3.9
			c-6.8,0.2-10,17.7-0.4,18.5c11,0.9,21.6,1.3,32.5,0.2c7.2-0.7,14.6-1.8,20.5-5.3C263.2,336.5,266.8,329.8,263.7,324.4z"/>
		<path class="st11" d="M93.9,260.3c0.6,1.6,1.5,3.3,3,3.9c2.2,0.8,4.7-1.1,5.3-3.4s-0.1-4.7-0.6-7c-9.5-37.2,0.8-76.6,28.5-103.2
			c0.7-0.7,1.4-8.4-7.2-4.7c-3,1.3-8.8,4.2-11.1,6.4c-6.4,6.1-11.2,15-14.9,22.9c-8,17-11.5,35.7-10.1,54.5
			C87.5,240.2,90,250.5,93.9,260.3z"/>
		<path class="st11" d="M118.9,297.3c-3.6,3-6,7.3-6.6,11.9c1.4-4.7,6-8,10.8-9.3s9.8-0.9,14.8-0.5c-5.6,4-8.4,10.9-6.9,17.7
			c1.2-5.5,5-9.9,10.3-11.9c2.1-0.8,5-1.7,5-3.9c-0.2-1.2-0.8-2.3-1.8-3C136.9,291.7,126.7,290.8,118.9,297.3z"/>
		<path class="st11" d="M124.8,282.1c-5.5-6.5-15-10.5-23.8-9c-4,0.6-7.2,2.6-8.8,5.2c2.4-2.5,7.4-3,12.2-2.2
			c2.5,0.4,4.9,1.1,7.3,1.9c-8.6-0.7-17.2,1.8-24,7.1c-4.4,3.5-7,8.1-7.1,12.5c1.2-4.7,6.8-8.7,13.1-10.9c5.4-1.9,13.1-5.4,21.2-5.3
			c-4.1,1.4-6.8,4.4-6.8,8c1.3-1.6,3.1-2.8,5.1-3.3c-4.9,4.7-8.6,10.5-6.3,14.8c0.6-5.2,5.4-10.4,12-13.2c1.4-0.6,2.8-1.2,4.1-2
			c1.4,0,2.6-0.1,2.9-1S125.5,282.9,124.8,282.1z"/>
		<path class="st11" d="M355.1,294l-25.6-25.2c-3.8-3.7-7.8-7.6-12.9-9c-9-2.5-18,3.5-25.4,9.3c-4.2,3.3-8.4,2.5-12.5,2.8
			c5.6-16.7,4-36.2-4.3-48.1c-10.3-14.8-23.5-17.7-42.2-8.8c-7.4,3.5-15.7,3.8-21.8-2.8c-5.2-5.7-7.9-14.1-11.2-21.9
			c-2.7-6.5-6.3-13-11.7-16.3c-4.7-2.9-8.5-6.7-13.1-10c-9.9-7.3-23-8.6-34.1-3.5c-14.7,6.9-25.9,24.4-29.5,44s-1.1,44.5,10.9,65.6
			c22.4,39.1,64.7,43,80.4,43.2c21.9,0.2,38.3-4.9,56.4-15.2c1.8-1.1,3.6-2.3,5.2-3.6c1.5,1.1,4.8,2.3,5.8,3.3c2,2.3,3.6,5,4.6,7.9
			c3.6,8.8,6.1,17.9,7.5,27.3c0.9,6.1,1.4,12.5,4.1,18.1s8.2,10.5,14.4,10.1c5.9-0.3,10.5-5,14-9.8s6.5-10.2,11.6-13.1
			c4-2.3,9.2-3.2,11.6-7.1c1.9-3,1.4-7,3.2-10c4.3-7.1,17.4-4.6,20.8-12.1C363.7,303.7,359.2,298,355.1,294z"/>
		<path class="st12" d="M363.1,283.5c0,0,7.6,6.6,10.8,4.6s12.7-10.5,16.9-11s12,4.9,8.5,8.5S368,310.6,365,311.1
			s-15.1-12.8-15.1-12.8L363.1,283.5z"/>
		<path class="st12" d="M323.6,343.8c0,0-0.7,3.6,3,3.8s16.4-1.5,20.1,0.4s7.1,10.8,2.3,11.9s-39.9,3-42.6,1.7s-0.1-16.3-0.1-16.3
			L323.6,343.8z"/>
		<path class="st13" d="M309.8,252.2c0,0,26.4,82.1,27.7,89.9S302,361,298.1,354.8s-21.8-75.9-23.1-77.2S292.2,241.1,309.8,252.2z"
			/>
		<path class="st14" d="M337.5,342.1c-1.3-7.8-27.7-89.9-27.7-89.9c-17.6-11.1-36.2,24.1-34.9,25.4c0.4,0.4,2.1,6.3,4.4,14.6l0,0
			c1.3-4.5,12.2-12.3,15.1-13.4c12.8-4.7,22.4,26,31.5,72.6C332.8,348.6,338,345.1,337.5,342.1z"/>
		<path class="st12" d="M238.2,196.3c0,0,14.2,19.9,19.9,16.9c5.8-3,14.3-20.5,18.2-20.2s3.8,13.2-5.5,22.4
			c-9.3,9.2-24.1,15.2-38.7,5.5s-6.9-18.3-6.9-18.3L238.2,196.3z"/>
		<path class="st15" d="M238.2,196.3c0,0,14.2,19.9,19.9,16.9c5.8-3,14.3-20.5,18.2-20.2s3.8,13.2-5.5,22.4
			c-9.3,9.2-24.1,15.2-38.7,5.5s-6.9-18.3-6.9-18.3L238.2,196.3z"/>
		<path class="st16" d="M118.9,225c-5.1-27.8,5.2-47.3,17.2-57.1c14.1-11.5,40.8-18.5,69.1-8.6c18,6.3,33,36.9,33,36.9l-13,6.4
			l14.2,37.7l-2.2,47.1c0,0-22.6,24.3-56.4,13.4C134.9,286.2,125.1,258.6,118.9,225z"/>
		<path class="st17" d="M158.3,195.8c0,0,25.8,20.8,25.7,25.2c0,0-15.5-28.1-21.1-30s-16.9,0-16.9,0S155.1,193.2,158.3,195.8z"/>
		<path class="st17" d="M124.1,214.9c0,0,19.5,58.9,101.2,31.8c0,0-13.9,25.9-55.7,22.5C143.4,267,120.7,241.5,124.1,214.9z"/>
		<path class="st12" d="M179.1,146.9l5,14.2c0,0-8.9,10.4-17.6,0l-3.5-12.9C163,148.2,175.1,143.8,179.1,146.9z"/>
		<path class="st15" d="M178.9,153.6c0.6-0.5,1.3-1,2-1.4l-1.8-5.2c-4-3.2-16.1,1.2-16.1,1.2l3.5,12.9c1.5,1.9,3.5,3.4,5.8,4.2
			C173.2,160.8,175.1,156.6,178.9,153.6z"/>
		<path class="st12" d="M183.3,127.4c0,0,2.8,11.7-2,19.9c-2.3,3.9-6.2,3.5-14.4,2.5c-6.5-0.8-11.4-4-12.7-11.4
			c-1.7-9.3,2.5-15.5,7.3-16.7C172.4,118.9,172.2,129.7,183.3,127.4z"/>
		<path class="st18" d="M274.5,145.8c0.3,0.1,16.9,4.1,16.9,5.6s-23.4,53.1-25.1,54.2s-12.5-10-13-10.7S271,144.8,274.5,145.8z"/>
		<path class="st18" d="M274.4,147.5c0.3,0.1,13.2,3.3,13.2,4.5s-21.6,50.3-23.2,50c-1-0.2-9-7.5-9.4-8S271.6,146.7,274.4,147.5z"/>
		<path class="st13" d="M195.7,303.6c0.4,1.1,44.8,6.6,67.2-14.6s35.2-34.2,39.7-33.6s34.2,49.9,38.8,54.1s23.8-20.9,27.7-32.3
			c0,0-39.1-56.3-59-64.5c-13-5.4-52.5,1.8-80.5,26.1S191.1,290.7,195.7,303.6z"/>
		<path class="st14" d="M250.1,291c-9,2.7-18.9,4.8-27.8,0.8c-8.7-3.8-13.4-13.3-11.1-22.5c2.3-10.1,10.4-17.3,18.2-23.3
			c8.3-6.4,16.6-12.2,23.8-20c1.5-1.6,2.9-3.2,4.3-4.9c-10.1,4.5-19.4,10.4-27.8,17.6c-28,24.3-38.7,51.9-34,64.8
			c0.4,1.1,44.8,6.6,67.2-14.6l5.3-5C262.4,286.8,256.3,289.1,250.1,291z"/>
		<path class="st14" d="M320.9,279.3c8.9,13.4,18.2,27.9,20.5,30.1c1.8,1.7,5.9-1.2,10.4-6C342,295,330.6,288.1,320.9,279.3z"/>
		<path class="st19" d="M384.7,274.3c-2.8,3.9,1,15,5.7,19.2c0,0-24.5,26.5-25.6,27.1s1.9,4,4.8,1.1s36.3-33.8,39.1-45.9
			C408.7,275.8,393.7,261.7,384.7,274.3z"/>
		<path class="st19" d="M349.9,342.6c-4.7,0.8-9.8,11.4-9.3,17.7c0,0-36,1.8-37.3,1.5s-1.4,4.2,2.6,4.1s49.5,1.2,60-5.5
			C366,360.5,365.1,340,349.9,342.6z"/>
		<path class="st20" d="M163.4,90.2c3.9-2.1,13.6-1.1,19.2,2.5s5.1-5.4,12.7-3.9s13.7,4.4,11.5,8.3s2.4,1.2,2.2,6.8
			s-2.7,9.8-5.6,10.8s-4.1,2.3-5.9,6.6s-15.3,12.8-23.9,4.9s-13.2-2.7-14.2-1s-0.7,4.4-3.7,7.6s-5.1,4.4-3.4,8.3s-9.5,2.1-13.7-4.4
			c-7-2.1-8.8-13.4-1.8-16.7c-1.8-5.2-3.4-7.9-2.2-13.7s7-12.1,12.7-9.9C157.1,100.1,159.2,92.4,163.4,90.2z"/>
		<path class="st21" d="M163.4,90.2c-0.5-1.8-11.6-0.3-14.6,4.1c-6.3,10.1-7.6,22.5-3.6,33.6c0,0,7.2-1.6,9.4-2.3
			C152,109.8,156.4,96.6,163.4,90.2z"/>
		<path class="st21" d="M166.8,135.4c1.1,7.7-3.4,14.7-10,15.7s-13-4.5-14.1-12.1s3.4-14.7,10-15.7S165.7,127.7,166.8,135.4z"/>
		<path class="st21" d="M166.8,135.4c1.1,7.7-3.4,14.7-10,15.7s-13-4.5-14.1-12.1s3.4-14.7,10-15.7S165.7,127.7,166.8,135.4z"/>
		
			<ellipse transform="matrix(0.9893 -0.1456 0.1456 0.9893 -18.396 23.6451)" class="st21" cx="152.4" cy="137.5" rx="12.2" ry="14.1"/>
		<path class="st12" d="M184.1,221c0,0-11,27-16.3,30.8c0,0,43.1,8.7,68.7-13c25.7-21.7,31.3-35.9,34.7-37.1s17.1-9.5,15.1-20.8
			s-11.7,7.8-14.2,5.1s-3.9-8.6-6.1-2.7s-2.2,10.3-6.1,13.4S229.4,233.2,184.1,221z"/>
		<path class="st2" d="M311.9,59.4c-10.9,3.2-23,0.8-33.5,5.1c-16.5,6.8-22.4,29-16.2,45.8s21.4,28.6,37.3,37
			c27.5,14.5,60,21.1,90,13.3s56.6-31.6,63.1-62c6.3-29.1-12.7-76.6-44.6-83.4c-18-3.8-38.8-0.6-53.8,10.4
			C339.8,36.1,330.1,54.1,311.9,59.4z"/>
	</g>
</g>
</svg>
